<svg width="37" height="36" viewBox="0 0 37 36" fill="none" xmlns="http://www.w3.org/2000/svg">
<path d="M33.917 20.7113C32.512 20.7113 31.3349 19.544 31.3349 18.1129C31.3349 16.7197 32.512 15.5145 33.917 15.5145C35.3601 15.5145 36.4991 16.6818 36.4991 18.1129C36.5372 19.5815 35.3601 20.7113 33.917 20.7113ZM21.0438 2.59838C21.0438 1.16736 19.9045 0 18.4616 0C17.0567 0 15.8795 1.20515 15.8795 2.59838C15.8795 4.02941 17.0567 5.19677 18.4616 5.19677C19.9045 5.19677 21.0817 4.067 21.0438 2.59838ZM21.0438 33.4016C21.0438 31.9706 19.9045 30.8032 18.4616 30.8032C17.0567 30.8032 15.8795 32.0084 15.8795 33.4016C15.8795 34.8326 17.0567 36 18.4616 36C19.9045 36 21.0817 34.8702 21.0438 33.4016ZM5.66421 18.113C5.66421 16.6819 4.52492 15.5146 3.08211 15.5146C1.67713 15.5146 0.5 16.7197 0.5 18.113C0.5 19.544 1.67713 20.7114 3.08211 20.7114C4.52519 20.7114 5.70239 19.5816 5.66421 18.113ZM10.2971 7.04188C10.2971 5.61086 9.15777 4.4435 7.71496 4.4435C6.30998 4.4435 5.13285 5.64865 5.13285 7.04188C5.13285 8.4729 6.30998 9.64026 7.71496 9.64026C9.15777 9.64026 10.3352 8.51049 10.2971 7.04188ZM29.2462 9.64026C30.6511 9.64026 31.8283 8.47297 31.8283 7.04188C31.8283 5.64865 30.6511 4.4435 29.2462 4.4435C27.8031 4.4435 26.6641 5.61079 26.6641 7.04188C26.6259 8.51049 27.8031 9.64026 29.2462 9.64026ZM7.71482 26.021C6.30984 26.021 5.13271 27.1882 5.13271 28.6193C5.13271 30.0126 6.30984 31.2177 7.71482 31.2177C9.15791 31.2177 10.2969 30.0504 10.2969 28.6193C10.3351 27.1505 9.15763 26.021 7.71482 26.021ZM26.6639 28.6193C26.6639 30.0504 27.8032 31.2177 29.246 31.2177C30.651 31.2177 31.8281 30.0126 31.8281 28.6193C31.8281 27.1883 30.651 26.021 29.246 26.021C27.8032 26.021 26.626 27.1505 26.6639 28.6193ZM30.2717 18.1131C30.2717 18.2636 30.1578 18.4144 29.9678 18.4144H24.8791C24.8031 19.9205 24.2336 21.2762 23.2842 22.3306L26.7778 25.795C26.8917 25.9079 26.8917 26.0963 26.7778 26.2092C26.6639 26.3222 26.474 26.3222 26.3601 26.2092L22.8665 22.7448C21.8032 23.7616 20.3601 24.4018 18.7653 24.4771V29.448C18.7653 29.5985 18.6514 29.7493 18.4614 29.7493C18.2715 29.7493 18.1576 29.6363 18.1576 29.448L18.1579 24.4018C16.563 24.3264 15.1199 23.6862 14.0567 22.6694L10.563 26.1338C10.4491 26.2468 10.2592 26.2468 10.1453 26.1338C10.0314 26.0209 10.0314 25.8325 10.1453 25.7196L13.6389 22.2552C12.6896 21.2008 12.1201 19.8451 12.044 18.339H7.06946C6.91768 18.339 6.76564 18.2261 6.76564 18.0377C6.76564 17.8872 6.87954 17.7364 7.06946 17.7364H12.12C12.196 16.1173 12.8794 14.6484 13.9808 13.5565L10.3352 10.0921C10.2213 9.97916 10.2213 9.79082 10.3352 9.67787C10.4491 9.56492 10.639 9.56492 10.7529 9.67787L14.3604 13.2552C15.4237 12.3892 16.7528 11.8242 18.1957 11.7866V6.66553C18.1957 6.51502 18.3096 6.36425 18.4995 6.36425C18.6895 6.36425 18.8034 6.4772 18.8034 6.66553V11.7493C20.2464 11.8247 21.5754 12.3519 22.6387 13.2179L26.2462 9.64062C26.3601 9.52767 26.55 9.52767 26.6639 9.64062C26.7778 9.75357 26.7778 9.94191 26.6639 10.0549L23.0564 13.6322C24.1575 14.7241 24.8412 16.1927 24.9172 17.8121H30.0439C30.1578 17.8118 30.2717 17.9248 30.2717 18.1131ZM24.3096 18.1131C24.3096 14.9121 21.6893 12.3516 18.4996 12.3516C15.2716 12.3516 12.6895 14.95 12.6895 18.1131C12.6895 21.3141 15.3098 23.8746 18.4996 23.8746C21.6893 23.8746 24.3096 21.2762 24.3096 18.1131ZM18.4996 17.9248C17.2842 17.9248 16.2591 16.908 16.2591 15.7031C16.2591 14.4979 17.2845 13.4814 18.4996 13.4814C19.7527 13.4814 20.74 14.4982 20.74 15.7031C20.74 16.9458 19.7527 17.9248 18.4996 17.9248ZM18.4996 14.1215C17.6641 14.1215 16.9425 14.8746 16.9425 15.7031C16.9425 16.5691 17.6259 17.2847 18.4996 17.2847C19.3729 17.2847 20.0566 16.607 20.0566 15.7031C20.0566 14.7992 19.411 14.084 18.4996 14.1215ZM21.9932 21.0503H15.0059C14.9299 19.3559 15.3476 18.0756 16.0313 17.7743C16.9427 17.3976 17.9679 18.3015 18.0439 18.452C18.3099 18.6779 18.4238 18.6779 18.4617 18.6779C18.5377 18.6779 18.6895 18.6025 18.8794 18.452C18.9933 18.339 20.0187 17.3976 20.9299 17.7743C21.6514 18.0756 22.107 19.3559 21.9932 21.0503ZM15.6894 20.4478H21.3476C21.2716 18.9038 20.9299 18.4896 20.6642 18.4144C20.2465 18.2261 19.5631 18.7157 19.335 18.9416C19.069 19.2054 18.8034 19.3559 18.4996 19.3559C18.2336 19.3559 17.9679 19.2054 17.6641 18.9416C17.4363 18.7533 16.7527 18.2261 16.3349 18.4144C16.0692 18.4898 15.6894 18.8662 15.6894 20.4478Z" fill="#002FA7"/>
</svg>
