<?xml version="1.0" encoding="UTF-8"?>
<svg width="326px" height="78px" viewBox="0 0 326 78" version="1.1" xmlns="http://www.w3.org/2000/svg" xmlns:xlink="http://www.w3.org/1999/xlink">
    <title>rbi-registered</title>
    <g id="rbi-registered" stroke="none" stroke-width="1" fill="none" fill-rule="evenodd">
        <g id="Group-24">
            <rect id="Rectangle" fill="#FFFFFF" x="0" y="0" width="326" height="78" rx="15"></rect>
            <g id="RBI-Registered-NBFC-" transform="translate(79.893555, 31.000000)" fill="#000000" fill-rule="nonzero">
                <path d="M5.26367188,9.79492188 L2.9296875,9.79492188 L2.9296875,15 L0,15 L0,0.78125 L5.28320312,0.78125 C6.96289063,0.78125 8.25846354,1.15559896 9.16992188,1.90429688 C10.0813802,2.65299479 10.5371094,3.7109375 10.5371094,5.078125 C10.5371094,6.04817708 10.3271484,6.85709635 9.90722656,7.50488281 C9.48730469,8.15266927 8.85091146,8.66861979 7.99804688,9.05273438 L11.0742188,14.8632812 L11.0742188,15 L7.9296875,15 L5.26367188,9.79492188 Z M2.9296875,7.421875 L5.29296875,7.421875 C6.02864583,7.421875 6.59830729,7.23470052 7.00195312,6.86035156 C7.40559896,6.4860026 7.60742188,5.97005208 7.60742188,5.3125 C7.60742188,4.64192708 7.41699219,4.11458333 7.03613281,3.73046875 C6.65527344,3.34635417 6.07096354,3.15429688 5.28320312,3.15429688 L2.9296875,3.15429688 L2.9296875,7.421875 Z" id="Shape"></path>
                <path d="M12.7636719,15 L12.7636719,0.78125 L17.7441406,0.78125 C19.469401,0.78125 20.7779948,1.11165365 21.6699219,1.77246094 C22.561849,2.43326823 23.0078125,3.40169271 23.0078125,4.67773438 C23.0078125,5.37434896 22.828776,5.98795573 22.4707031,6.51855469 C22.1126302,7.04915365 21.6145833,7.43815104 20.9765625,7.68554688 C21.7057292,7.86783854 22.2802734,8.23567708 22.7001953,8.7890625 C23.1201172,9.34244792 23.3300781,10.0195312 23.3300781,10.8203125 C23.3300781,12.1875 22.8938802,13.2226562 22.0214844,13.9257812 C21.1490885,14.6289062 19.905599,14.9869792 18.2910156,15 L12.7636719,15 Z M15.6933594,8.80859375 L15.6933594,12.6464844 L18.203125,12.6464844 C18.8932292,12.6464844 19.4319661,12.4820964 19.8193359,12.1533203 C20.2067057,11.8245443 20.4003906,11.3704427 20.4003906,10.7910156 C20.4003906,9.48893229 19.7265625,8.828125 18.3789062,8.80859375 L15.6933594,8.80859375 Z M15.6933594,6.73828125 L17.8613281,6.73828125 C19.3391927,6.71223958 20.078125,6.12304688 20.078125,4.97070312 C20.078125,4.32617188 19.8909505,3.86230469 19.5166016,3.57910156 C19.1422526,3.29589844 18.5514323,3.15429688 17.7441406,3.15429688 L15.6933594,3.15429688 L15.6933594,6.73828125 Z" id="Shape"></path>
                <polygon id="Path" points="28.6425781 15 25.7128906 15 25.7128906 0.78125 28.6425781 0.78125"></polygon>
                <path d="M42.1777344,9.08203125 L38.046875,9.08203125 L38.046875,15 L36.8359375,15 L36.8359375,0.78125 L41.4550781,0.78125 C42.9720052,0.78125 44.156901,1.14908854 45.0097656,1.88476562 C45.8626302,2.62044271 46.2890625,3.64908854 46.2890625,4.97070312 C46.2890625,5.88216146 46.0221354,6.68619792 45.4882812,7.3828125 C44.9544271,8.07942708 44.2382812,8.56119792 43.3398438,8.828125 L46.8945312,14.8730469 L46.8945312,15 L45.6152344,15 L42.1777344,9.08203125 Z M38.046875,8.05664062 L41.7285156,8.05664062 C42.7376302,8.05664062 43.5481771,7.77018229 44.1601562,7.19726562 C44.7721354,6.62434896 45.078125,5.88216146 45.078125,4.97070312 C45.078125,3.96809896 44.7591146,3.19010417 44.1210938,2.63671875 C43.4830729,2.08333333 42.5878906,1.80664062 41.4355469,1.80664062 L38.046875,1.80664062 L38.046875,8.05664062 Z" id="Shape"></path>
                <path d="M53.3789062,15.1953125 C52.4804688,15.1953125 51.6682943,14.9739583 50.9423828,14.53125 C50.2164714,14.0885417 49.6516927,13.4716797 49.2480469,12.6806641 C48.844401,11.8896484 48.6425781,11.0026042 48.6425781,10.0195312 L48.6425781,9.59960938 C48.6425781,8.58398438 48.8395182,7.66927083 49.2333984,6.85546875 C49.6272786,6.04166667 50.1757812,5.40201823 50.8789062,4.93652344 C51.5820312,4.47102865 52.34375,4.23828125 53.1640625,4.23828125 C54.4466146,4.23828125 55.4638672,4.67610677 56.2158203,5.55175781 C56.9677734,6.42740885 57.34375,7.62369792 57.34375,9.140625 L57.34375,9.79492188 L49.8046875,9.79492188 L49.8046875,10.0195312 C49.8046875,11.2174479 50.148112,12.2151693 50.8349609,13.0126953 C51.5218099,13.8102214 52.3860677,14.2089844 53.4277344,14.2089844 C54.0527344,14.2089844 54.6044922,14.0950521 55.0830078,13.8671875 C55.5615234,13.6393229 55.9960938,13.2747396 56.3867188,12.7734375 L57.1191406,13.3300781 C56.2597656,14.5735677 55.0130208,15.1953125 53.3789062,15.1953125 Z M53.1640625,5.234375 C52.2851562,5.234375 51.5445964,5.55664062 50.9423828,6.20117188 C50.3401693,6.84570312 49.9739583,7.71158854 49.84375,8.79882812 L56.1816406,8.79882812 L56.1816406,8.671875 C56.1490885,7.65625 55.859375,6.82942708 55.3125,6.19140625 C54.765625,5.55338542 54.0494792,5.234375 53.1640625,5.234375 Z" id="Shape"></path>
                <path d="M59.1503906,9.61914062 C59.1503906,7.96549479 59.5166016,6.65527344 60.2490234,5.68847656 C60.9814453,4.72167969 61.9759115,4.23828125 63.2324219,4.23828125 C64.671224,4.23828125 65.764974,4.81119792 66.5136719,5.95703125 L66.5722656,4.43359375 L67.6660156,4.43359375 L67.6660156,14.7851562 C67.6660156,16.1458333 67.2851562,17.2233073 66.5234375,18.0175781 C65.7617188,18.811849 64.7298177,19.2089844 63.4277344,19.2089844 C62.6920573,19.2089844 61.9905599,19.0445964 61.3232422,18.7158203 C60.6559245,18.3870443 60.1302083,17.9492188 59.7460938,17.4023438 L60.4003906,16.6992188 C61.2272135,17.7148438 62.2102865,18.2226562 63.3496094,18.2226562 C64.3261719,18.2226562 65.0878906,17.9345703 65.6347656,17.3583984 C66.1816406,16.7822266 66.4648438,15.9830729 66.484375,14.9609375 L66.484375,13.6328125 C65.7356771,14.6744792 64.6451823,15.1953125 63.2128906,15.1953125 C61.9889323,15.1953125 61.0058594,14.7070312 60.2636719,13.7304688 C59.5214844,12.7539062 59.1503906,11.4355469 59.1503906,9.77539062 L59.1503906,9.61914062 Z M60.3320312,9.82421875 C60.3320312,11.171875 60.6022135,12.2347005 61.1425781,13.0126953 C61.6829427,13.7906901 62.4446615,14.1796875 63.4277344,14.1796875 C64.8665365,14.1796875 65.8854167,13.5351562 66.484375,12.2460938 L66.484375,7.33398438 C66.2109375,6.65690104 65.8170573,6.14095052 65.3027344,5.78613281 C64.7884115,5.4313151 64.1699219,5.25390625 63.4472656,5.25390625 C62.4641927,5.25390625 61.6992188,5.63964844 61.1523438,6.41113281 C60.6054688,7.18261719 60.3320312,8.3203125 60.3320312,9.82421875 Z" id="Shape"></path>
                <path d="M72.0214844,15 L70.8496094,15 L70.8496094,4.43359375 L72.0214844,4.43359375 L72.0214844,15 Z M70.6445312,1.37695312 C70.6445312,1.15559896 70.7161458,0.968424479 70.859375,0.815429688 C71.0026042,0.662434896 71.1979167,0.5859375 71.4453125,0.5859375 C71.6927083,0.5859375 71.8896484,0.662434896 72.0361328,0.815429688 C72.1826172,0.968424479 72.2558594,1.15559896 72.2558594,1.37695312 C72.2558594,1.59830729 72.1826172,1.78385417 72.0361328,1.93359375 C71.8896484,2.08333333 71.6927083,2.15820312 71.4453125,2.15820312 C71.1979167,2.15820312 71.0026042,2.08333333 70.859375,1.93359375 C70.7161458,1.78385417 70.6445312,1.59830729 70.6445312,1.37695312 Z" id="Shape"></path>
                <path d="M81.5234375,12.3144531 C81.5234375,11.735026 81.2906901,11.2695312 80.8251953,10.9179688 C80.3597005,10.5664062 79.6582031,10.2913411 78.7207031,10.0927734 C77.7832031,9.89420573 77.0556641,9.66634115 76.5380859,9.40917969 C76.0205078,9.15201823 75.6363932,8.83789062 75.3857422,8.46679688 C75.1350911,8.09570312 75.0097656,7.64648438 75.0097656,7.11914062 C75.0097656,6.28580729 75.3580729,5.59733073 76.0546875,5.05371094 C76.7513021,4.51009115 77.6432292,4.23828125 78.7304688,4.23828125 C79.9088542,4.23828125 80.8544922,4.5296224 81.5673828,5.11230469 C82.2802734,5.69498698 82.6367188,6.45507812 82.6367188,7.39257812 L81.4648438,7.39257812 C81.4648438,6.77408854 81.2060547,6.25976562 80.6884766,5.84960938 C80.1708984,5.43945312 79.5182292,5.234375 78.7304688,5.234375 C77.9622396,5.234375 77.3453776,5.40527344 76.8798828,5.74707031 C76.414388,6.08886719 76.1816406,6.53320312 76.1816406,7.08007812 C76.1816406,7.60742188 76.3753255,8.01595052 76.7626953,8.30566406 C77.1500651,8.5953776 77.8564453,8.86067708 78.8818359,9.1015625 C79.9072266,9.34244792 80.6754557,9.59960938 81.1865234,9.87304688 C81.6975911,10.1464844 82.0768229,10.4752604 82.3242188,10.859375 C82.5716146,11.2434896 82.6953125,11.7089844 82.6953125,12.2558594 C82.6953125,13.1477865 82.335612,13.8606771 81.6162109,14.3945312 C80.8968099,14.9283854 79.9576823,15.1953125 78.7988281,15.1953125 C77.5683594,15.1953125 76.570638,14.8974609 75.8056641,14.3017578 C75.0406901,13.7060547 74.6582031,12.952474 74.6582031,12.0410156 L75.8300781,12.0410156 C75.875651,12.7246094 76.163737,13.2568359 76.6943359,13.6376953 C77.2249349,14.0185547 77.9264323,14.2089844 78.7988281,14.2089844 C79.6126302,14.2089844 80.2701823,14.0299479 80.7714844,13.671875 C81.2727865,13.3138021 81.5234375,12.8613281 81.5234375,12.3144531 Z" id="Path"></path>
                <path d="M87.1386719,1.72851562 L87.1386719,4.43359375 L89.3261719,4.43359375 L89.3261719,5.390625 L87.1386719,5.390625 L87.1386719,12.4316406 C87.1386719,13.0175781 87.2444661,13.453776 87.4560547,13.7402344 C87.6676432,14.0266927 88.0208333,14.1699219 88.515625,14.1699219 C88.7109375,14.1699219 89.0266927,14.1373698 89.4628906,14.0722656 L89.5117188,15.0292969 C89.2057292,15.139974 88.7890625,15.1953125 88.2617188,15.1953125 C87.4609375,15.1953125 86.8782552,14.9625651 86.5136719,14.4970703 C86.1490885,14.0315755 85.9667969,13.3463542 85.9667969,12.4414062 L85.9667969,5.390625 L84.0234375,5.390625 L84.0234375,4.43359375 L85.9667969,4.43359375 L85.9667969,1.72851562 L87.1386719,1.72851562 Z" id="Path"></path>
                <path d="M95.8398438,15.1953125 C94.9414062,15.1953125 94.1292318,14.9739583 93.4033203,14.53125 C92.6774089,14.0885417 92.1126302,13.4716797 91.7089844,12.6806641 C91.3053385,11.8896484 91.1035156,11.0026042 91.1035156,10.0195312 L91.1035156,9.59960938 C91.1035156,8.58398438 91.3004557,7.66927083 91.6943359,6.85546875 C92.0882161,6.04166667 92.6367188,5.40201823 93.3398438,4.93652344 C94.0429688,4.47102865 94.8046875,4.23828125 95.625,4.23828125 C96.9075521,4.23828125 97.9248047,4.67610677 98.6767578,5.55175781 C99.4287109,6.42740885 99.8046875,7.62369792 99.8046875,9.140625 L99.8046875,9.79492188 L92.265625,9.79492188 L92.265625,10.0195312 C92.265625,11.2174479 92.6090495,12.2151693 93.2958984,13.0126953 C93.9827474,13.8102214 94.8470052,14.2089844 95.8886719,14.2089844 C96.5136719,14.2089844 97.0654297,14.0950521 97.5439453,13.8671875 C98.0224609,13.6393229 98.4570312,13.2747396 98.8476562,12.7734375 L99.5800781,13.3300781 C98.7207031,14.5735677 97.4739583,15.1953125 95.8398438,15.1953125 Z M95.625,5.234375 C94.7460938,5.234375 94.0055339,5.55664062 93.4033203,6.20117188 C92.8011068,6.84570312 92.4348958,7.71158854 92.3046875,8.79882812 L98.6425781,8.79882812 L98.6425781,8.671875 C98.610026,7.65625 98.3203125,6.82942708 97.7734375,6.19140625 C97.2265625,5.55338542 96.5104167,5.234375 95.625,5.234375 Z" id="Shape"></path>
                <path d="M106.962891,5.4296875 C106.715495,5.38411458 106.451823,5.36132812 106.171875,5.36132812 C105.442708,5.36132812 104.825846,5.56477865 104.321289,5.97167969 C103.816732,6.37858073 103.457031,6.96940104 103.242188,7.74414062 L103.242188,15 L102.080078,15 L102.080078,4.43359375 L103.222656,4.43359375 L103.242188,6.11328125 C103.860677,4.86328125 104.853516,4.23828125 106.220703,4.23828125 C106.546224,4.23828125 106.803385,4.28059896 106.992188,4.36523438 L106.962891,5.4296875 Z" id="Path"></path>
                <path d="M112.714844,15.1953125 C111.816406,15.1953125 111.004232,14.9739583 110.27832,14.53125 C109.552409,14.0885417 108.98763,13.4716797 108.583984,12.6806641 C108.180339,11.8896484 107.978516,11.0026042 107.978516,10.0195312 L107.978516,9.59960938 C107.978516,8.58398438 108.175456,7.66927083 108.569336,6.85546875 C108.963216,6.04166667 109.511719,5.40201823 110.214844,4.93652344 C110.917969,4.47102865 111.679688,4.23828125 112.5,4.23828125 C113.782552,4.23828125 114.799805,4.67610677 115.551758,5.55175781 C116.303711,6.42740885 116.679688,7.62369792 116.679688,9.140625 L116.679688,9.79492188 L109.140625,9.79492188 L109.140625,10.0195312 C109.140625,11.2174479 109.484049,12.2151693 110.170898,13.0126953 C110.857747,13.8102214 111.722005,14.2089844 112.763672,14.2089844 C113.388672,14.2089844 113.94043,14.0950521 114.418945,13.8671875 C114.897461,13.6393229 115.332031,13.2747396 115.722656,12.7734375 L116.455078,13.3300781 C115.595703,14.5735677 114.348958,15.1953125 112.714844,15.1953125 Z M112.5,5.234375 C111.621094,5.234375 110.880534,5.55664062 110.27832,6.20117188 C109.676107,6.84570312 109.309896,7.71158854 109.179688,8.79882812 L115.517578,8.79882812 L115.517578,8.671875 C115.485026,7.65625 115.195312,6.82942708 114.648438,6.19140625 C114.101562,5.55338542 113.385417,5.234375 112.5,5.234375 Z" id="Shape"></path>
                <path d="M118.486328,9.61914062 C118.486328,7.97851563 118.852539,6.67154948 119.584961,5.69824219 C120.317383,4.7249349 121.311849,4.23828125 122.568359,4.23828125 C123.994141,4.23828125 125.08138,4.80143229 125.830078,5.92773438 L125.830078,0 L126.992188,0 L126.992188,15 L125.898438,15 L125.849609,13.59375 C125.100911,14.6614583 124.000651,15.1953125 122.548828,15.1953125 C121.33138,15.1953125 120.349935,14.7054036 119.604492,13.7255859 C118.859049,12.7457682 118.486328,11.422526 118.486328,9.75585938 L118.486328,9.61914062 Z M119.667969,9.82421875 C119.667969,11.171875 119.938151,12.2347005 120.478516,13.0126953 C121.01888,13.7906901 121.780599,14.1796875 122.763672,14.1796875 C124.202474,14.1796875 125.224609,13.5449219 125.830078,12.2753906 L125.830078,7.31445312 C125.224609,5.94075521 124.208984,5.25390625 122.783203,5.25390625 C121.80013,5.25390625 121.035156,5.63964844 120.488281,6.41113281 C119.941406,7.18261719 119.667969,8.3203125 119.667969,9.82421875 Z" id="Shape"></path>
                <polygon id="Path" points="146.357422 15 143.427734 15 137.724609 5.64453125 137.724609 15 134.794922 15 134.794922 0.78125 137.724609 0.78125 143.4375 10.15625 143.4375 0.78125 146.357422 0.78125"></polygon>
                <path d="M148.916016,15 L148.916016,0.78125 L153.896484,0.78125 C155.621745,0.78125 156.930339,1.11165365 157.822266,1.77246094 C158.714193,2.43326823 159.160156,3.40169271 159.160156,4.67773438 C159.160156,5.37434896 158.98112,5.98795573 158.623047,6.51855469 C158.264974,7.04915365 157.766927,7.43815104 157.128906,7.68554688 C157.858073,7.86783854 158.432617,8.23567708 158.852539,8.7890625 C159.272461,9.34244792 159.482422,10.0195312 159.482422,10.8203125 C159.482422,12.1875 159.046224,13.2226562 158.173828,13.9257812 C157.301432,14.6289062 156.057943,14.9869792 154.443359,15 L148.916016,15 Z M151.845703,8.80859375 L151.845703,12.6464844 L154.355469,12.6464844 C155.045573,12.6464844 155.58431,12.4820964 155.97168,12.1533203 C156.359049,11.8245443 156.552734,11.3704427 156.552734,10.7910156 C156.552734,9.48893229 155.878906,8.828125 154.53125,8.80859375 L151.845703,8.80859375 Z M151.845703,6.73828125 L154.013672,6.73828125 C155.491536,6.71223958 156.230469,6.12304688 156.230469,4.97070312 C156.230469,4.32617188 156.043294,3.86230469 155.668945,3.57910156 C155.294596,3.29589844 154.703776,3.15429688 153.896484,3.15429688 L151.845703,3.15429688 L151.845703,6.73828125 Z" id="Shape"></path>
                <polygon id="Path" points="170.234375 9.18945312 164.609375 9.18945312 164.609375 15 161.679688 15 161.679688 0.78125 170.9375 0.78125 170.9375 3.15429688 164.609375 3.15429688 164.609375 6.82617188 170.234375 6.82617188"></polygon>
                <path d="M183.798828,10.2636719 C183.688151,11.7936198 183.123372,12.9980469 182.104492,13.8769531 C181.085612,14.7558594 179.742839,15.1953125 178.076172,15.1953125 C176.253255,15.1953125 174.819336,14.5817057 173.774414,13.3544922 C172.729492,12.1272786 172.207031,10.4427083 172.207031,8.30078125 L172.207031,7.43164062 C172.207031,6.06445312 172.447917,4.86002604 172.929688,3.81835938 C173.411458,2.77669271 174.099935,1.97753906 174.995117,1.42089844 C175.890299,0.864257812 176.930339,0.5859375 178.115234,0.5859375 C179.755859,0.5859375 181.077474,1.02539062 182.080078,1.90429688 C183.082682,2.78320312 183.662109,4.01692708 183.818359,5.60546875 L180.888672,5.60546875 C180.817057,4.6875 180.561523,4.0218099 180.12207,3.60839844 C179.682617,3.19498698 179.013672,2.98828125 178.115234,2.98828125 C177.138672,2.98828125 176.407878,3.33821615 175.922852,4.03808594 C175.437826,4.73795573 175.188802,5.82356771 175.175781,7.29492188 L175.175781,8.36914062 C175.175781,9.90559896 175.408529,11.0286458 175.874023,11.7382812 C176.339518,12.4479167 177.073568,12.8027344 178.076172,12.8027344 C178.98112,12.8027344 179.656576,12.5960286 180.102539,12.1826172 C180.548503,11.7692057 180.804036,11.1295573 180.869141,10.2636719 L183.798828,10.2636719 Z" id="Path"></path>
                <polygon id="Path" points="191.025391 10.0488281 185.527344 10.0488281 185.527344 7.7734375 191.025391 7.7734375"></polygon>
                <path d="M196.40625,9.99023438 L196.40625,15 L193.476562,15 L193.476562,0.78125 L199.023438,0.78125 C200.091146,0.78125 201.030273,0.9765625 201.84082,1.3671875 C202.651367,1.7578125 203.27474,2.31282552 203.710938,3.03222656 C204.147135,3.7516276 204.365234,4.5703125 204.365234,5.48828125 C204.365234,6.88151042 203.888346,7.98014323 202.93457,8.78417969 C201.980794,9.58821615 200.660807,9.99023438 198.974609,9.99023438 L196.40625,9.99023438 Z M196.40625,7.6171875 L199.023438,7.6171875 C199.798177,7.6171875 200.388997,7.43489583 200.795898,7.0703125 C201.202799,6.70572917 201.40625,6.18489583 201.40625,5.5078125 C201.40625,4.81119792 201.201172,4.24804688 200.791016,3.81835938 C200.380859,3.38867188 199.814453,3.16731771 199.091797,3.15429688 L196.40625,3.15429688 L196.40625,7.6171875 Z" id="Shape"></path>
                <path d="M215.820312,15 L206.074219,15 L206.074219,13.0664062 L210.673828,8.1640625 C211.305339,7.47395833 211.772461,6.87174479 212.075195,6.35742188 C212.37793,5.84309896 212.529297,5.35481771 212.529297,4.89257812 C212.529297,4.26106771 212.369792,3.76464844 212.050781,3.40332031 C211.731771,3.04199219 211.276042,2.86132812 210.683594,2.86132812 C210.045573,2.86132812 209.542643,3.08105469 209.174805,3.52050781 C208.806966,3.95996094 208.623047,4.53776042 208.623047,5.25390625 L205.791016,5.25390625 C205.791016,4.38802083 205.997721,3.59700521 206.411133,2.88085938 C206.824544,2.16471354 207.408854,1.6031901 208.164062,1.19628906 C208.919271,0.789388021 209.775391,0.5859375 210.732422,0.5859375 C212.197266,0.5859375 213.334961,0.9375 214.145508,1.640625 C214.956055,2.34375 215.361328,3.33658854 215.361328,4.61914062 C215.361328,5.32226562 215.179036,6.03841146 214.814453,6.76757812 C214.44987,7.49674479 213.82487,8.34635417 212.939453,9.31640625 L209.707031,12.7246094 L215.820312,12.7246094 L215.820312,15 Z" id="Path"></path>
                <path d="M220.78125,9.99023438 L220.78125,15 L217.851562,15 L217.851562,0.78125 L223.398438,0.78125 C224.466146,0.78125 225.405273,0.9765625 226.21582,1.3671875 C227.026367,1.7578125 227.64974,2.31282552 228.085938,3.03222656 C228.522135,3.7516276 228.740234,4.5703125 228.740234,5.48828125 C228.740234,6.88151042 228.263346,7.98014323 227.30957,8.78417969 C226.355794,9.58821615 225.035807,9.99023438 223.349609,9.99023438 L220.78125,9.99023438 Z M220.78125,7.6171875 L223.398438,7.6171875 C224.173177,7.6171875 224.763997,7.43489583 225.170898,7.0703125 C225.577799,6.70572917 225.78125,6.18489583 225.78125,5.5078125 C225.78125,4.81119792 225.576172,4.24804688 225.166016,3.81835938 C224.755859,3.38867188 224.189453,3.16731771 223.466797,3.15429688 L220.78125,3.15429688 L220.78125,7.6171875 Z" id="Shape"></path>
            </g>
            <circle id="Oval" fill="#C3E916" cx="39.5" cy="39.5" r="25.5"></circle>
            <g id="guarantee" transform="translate(25.000000, 25.000000)" fill="#FFFFFF" fill-rule="nonzero">
                <path d="M15.209254,7.4885753 C11.0139033,7.4885753 7.6128996,10.8410781 7.6128996,14.9765999 C7.6128996,19.1121217 11.0139033,22.4646245 15.209254,22.4646245 C19.4046047,22.4646245 22.8056084,19.1121217 22.8056084,14.9765999 C22.8056084,10.8410781 19.4046047,7.4885753 15.209254,7.4885753 L15.209254,7.4885753 Z M18.6845861,14.3307578 L15.294713,17.6722888 C14.8701052,18.0825523 14.1905544,18.0825523 13.7659466,17.6722888 L11.7244264,15.6692422 C11.3070844,15.2475105 11.3070844,14.5746489 11.7244264,14.1529172 C11.9277243,13.9505661 12.2046468,13.8367209 12.4935573,13.8367209 C12.7824678,13.8367209 13.0593903,13.9505661 13.2626882,14.1529172 L14.5255821,15.4071613 L17.1558198,12.8144328 C17.580599,12.398296 18.2671766,12.4003913 18.6893338,12.8191129 C19.1114909,13.2378344 19.1093653,13.9146209 18.6845861,14.3307578 L18.6845861,14.3307578 Z" id="Shape"></path>
                <path d="M27.3349346,10.2965845 C27.1831966,10.0732953 27.0797612,9.82158079 27.0310805,9.5571421 L26.185986,5.45744862 C26.0091391,4.6166138 25.3402783,3.96097489 24.4863018,3.79136314 L20.4127567,2.9583204 C20.1404396,2.90358312 19.8820929,2.79535155 19.6531213,2.64007936 L16.19678,0.365591877 C15.4688755,-0.121863959 14.5128421,-0.121863959 13.7849375,0.365591877 L10.3285963,2.64007936 C10.0971711,2.79720876 9.83532943,2.90555023 9.55946541,2.9583204 L5.49541582,3.79136314 C4.64609583,3.96900772 3.98538299,4.62765751 3.81472242,5.46680865 L2.96962799,9.56650213 C2.90548508,9.82637947 2.79626282,10.0733749 2.64678293,10.2965845 L0.348885734,13.8065961 C-0.116295245,14.5192061 -0.116295245,15.4339938 0.348885734,16.1466038 L2.64678293,19.6566153 C2.79059985,19.8839635 2.89340257,20.1341384 2.95063711,20.3960577 L3.79573153,24.4957512 C3.95542832,25.3546997 4.62778243,26.0322759 5.49541582,26.2086369 L9.55946541,27.0416796 C9.83532943,27.0944498 10.0971711,27.2027912 10.3285963,27.3599206 L13.7849375,29.6344081 C14.5128421,30.121864 15.4688755,30.121864 16.19678,29.6344081 L19.6531213,27.3599206 C19.8820929,27.2046485 20.1404396,27.0964169 20.4127567,27.0416796 L24.4863018,26.2086369 C25.3356217,26.0309923 25.9963346,25.3723425 26.1669952,24.5331913 L27.0120896,20.4334979 C27.0614008,20.1545578 27.1715521,19.8894938 27.3349346,19.6566153 L29.6518227,16.1466038 C30.1160591,15.4405016 30.1160591,14.5314183 29.6518227,13.8253161 L27.3349346,10.2965845 Z M15.209254,24.5987116 C9.81822836,24.5987116 5.44793861,20.2907454 5.44793861,14.9765999 C5.44793861,9.6624544 9.81822836,5.35448828 15.209254,5.35448828 C20.6002796,5.35448828 24.9705693,9.6624544 24.9705693,14.9765999 C24.9601199,20.286473 20.5959453,24.5884111 15.209254,24.5987116 L15.209254,24.5987116 Z" id="Shape"></path>
            </g>
        </g>
    </g>
</svg>