<svg width="64" height="64" viewBox="0 0 64 64" fill="none" xmlns="http://www.w3.org/2000/svg">
<path d="M32 64C49.6731 64 64 49.6731 64 32C64 14.3269 49.6731 0 32 0C14.3269 0 0 14.3269 0 32C0 49.6731 14.3269 64 32 64Z" fill="#E4EDFF"/>
<path d="M45.1796 37.1808C44.9336 36.8664 44.5896 36.6431 44.2022 36.5464C43.8148 36.4497 43.4062 36.4852 43.0413 36.6471L41.0036 37.4883C39.3116 36.2713 37.2854 35.606 35.2013 35.5831V33.7363L36.4904 33.0151C36.5649 32.9736 36.6197 32.9042 36.643 32.8222C36.6662 32.7403 36.656 32.6524 36.6145 32.578C36.5729 32.5036 36.5035 32.4487 36.4216 32.4254C36.3396 32.4022 36.2517 32.4125 36.1773 32.454L35.2024 32.9991V25.1317C35.2024 25.0465 35.1686 24.9648 35.1084 24.9046C35.0482 24.8444 34.9665 24.8105 34.8813 24.8105C34.7961 24.8105 34.7144 24.8444 34.6542 24.9046C34.594 24.9648 34.5602 25.0465 34.5602 25.1317V33.0357L33.5202 32.454C33.4833 32.4334 33.4428 32.4203 33.4009 32.4154C33.359 32.4105 33.3165 32.4139 33.2759 32.4254C33.1939 32.4487 33.1245 32.5036 33.083 32.578C33.0415 32.6524 33.0312 32.7403 33.0545 32.8222C33.0777 32.9042 33.1326 32.9736 33.207 33.0151L34.5602 33.7717V35.5843C32.7078 35.618 30.8977 36.1438 29.3156 37.1077C28.3505 36.8519 27.3551 36.7285 26.3567 36.7408H24.423V36.2288C24.423 35.956 24.3147 35.6944 24.1218 35.5015C23.9289 35.3086 23.6672 35.2003 23.3944 35.2003H22.3567V34.7546C22.3567 34.6694 22.3229 34.5877 22.2627 34.5275C22.2024 34.4672 22.1208 34.4334 22.0356 34.4334H18.9042C18.819 34.4334 18.7373 34.4672 18.6771 34.5275C18.6168 34.5877 18.583 34.6694 18.583 34.7546V46.2734C18.583 46.3586 18.6168 46.4403 18.6771 46.5005C18.7373 46.5607 18.819 46.5946 18.9042 46.5946H22.0344C22.1196 46.5946 22.2013 46.5607 22.2615 46.5005C22.3218 46.4403 22.3556 46.3586 22.3556 46.2734V45.6814H23.3933C23.6661 45.6814 23.9277 45.573 24.1206 45.3801C24.3135 45.1872 24.4219 44.9256 24.4219 44.6528V44.0003L32.703 45.9214C32.891 45.9602 33.0825 45.979 33.2744 45.9774C33.934 45.9809 34.5826 45.8085 35.1533 45.478L44.7053 39.2083C44.88 39.0976 45.0307 38.9529 45.1485 38.7829C45.2663 38.6129 45.3488 38.421 45.391 38.2185C45.4283 38.0403 45.4288 37.8563 45.3924 37.6779C45.3561 37.4994 45.2836 37.3303 45.1796 37.1808ZM21.711 45.9477H19.223V35.0723H21.711V45.9477ZM23.7784 37.0574V44.6471C23.7781 44.7498 23.7372 44.8481 23.6646 44.9207C23.592 44.9933 23.4937 45.0342 23.391 45.0345H22.3533V35.8403H23.391C23.4937 35.8406 23.592 35.8815 23.6646 35.9541C23.7372 36.0267 23.7781 36.125 23.7784 36.2277V37.0574ZM34.879 36.2197C36.801 36.1896 38.6885 36.7314 40.3019 37.7763L38.0162 38.7168C37.9052 38.4007 37.6983 38.1272 37.4244 37.9344C37.1504 37.7416 36.8231 37.6392 36.4882 37.6414H32.031C31.3895 37.6212 30.7524 37.5288 30.1316 37.366C31.5958 36.5996 33.2264 36.2059 34.879 36.2197ZM44.7613 38.0894C44.7352 38.2069 44.6859 38.318 44.6162 38.4161C44.5466 38.5143 44.4579 38.5975 44.3556 38.6608L34.8036 44.9305C34.2086 45.2655 33.5183 45.3907 32.8436 45.286L24.4207 43.3317V37.382H26.3544C27.3821 37.3599 28.4067 37.5035 29.3887 37.8071L29.4139 37.8174H29.4219C30.2659 38.1 31.147 38.2567 32.0367 38.2825H36.4939C36.7397 38.2786 36.9776 38.3697 37.158 38.5368C37.3383 38.7039 37.4472 38.9342 37.4619 39.1797C37.4619 39.1934 37.4619 39.2071 37.4619 39.2208C37.4618 39.2807 37.4556 39.3404 37.4436 39.3991C37.3965 39.6159 37.2761 39.8097 37.1026 39.948C36.9292 40.0862 36.7134 40.1604 36.4916 40.158H32.0436C31.1936 40.1491 30.3684 40.4442 29.7167 40.99C29.6848 41.0176 29.6587 41.0512 29.6398 41.0889C29.6209 41.1267 29.6096 41.1677 29.6066 41.2098C29.6036 41.2519 29.6089 41.2941 29.6222 41.3342C29.6355 41.3742 29.6565 41.4112 29.6842 41.4431C29.7118 41.475 29.7454 41.5012 29.7831 41.5201C29.8208 41.5389 29.8619 41.5502 29.904 41.5533C29.9461 41.5563 29.9883 41.551 30.0284 41.5377C30.0684 41.5244 30.1054 41.5033 30.1373 41.4757C30.6669 41.0388 31.3319 40.7996 32.0185 40.7991H36.4916C36.8616 40.8011 37.221 40.6755 37.5091 40.4433C37.7973 40.2112 37.9965 39.8868 38.0733 39.5248C38.0836 39.4757 38.0905 39.4265 38.095 39.3774L43.287 37.2357H43.2939C43.5234 37.1347 43.7795 37.1105 44.0239 37.1667C44.2683 37.2229 44.4881 37.3565 44.6504 37.5477C44.705 37.6256 44.743 37.7139 44.7623 37.807C44.7815 37.9001 44.7816 37.9962 44.7625 38.0894H44.7613Z" fill="#1458EA"/>
<path d="M29.9351 31.109H30.2585C30.3192 31.1131 30.376 31.1402 30.4174 31.1846C30.4589 31.2291 30.482 31.2876 30.482 31.3484C30.482 31.4092 30.4589 31.4677 30.4174 31.5121C30.376 31.5566 30.3192 31.5836 30.2585 31.5878H29.374C29.2886 31.5878 29.2068 31.6217 29.1465 31.682C29.0862 31.7424 29.0522 31.8242 29.0522 31.9095C29.0522 31.9949 29.0862 32.0767 29.1465 32.137C29.2068 32.1973 29.2886 32.2313 29.374 32.2313H29.7751V32.5398C29.7751 32.625 29.8089 32.7067 29.8692 32.7669C29.9294 32.8271 30.0111 32.861 30.0962 32.861C30.1814 32.861 30.2631 32.8271 30.3233 32.7669C30.3836 32.7067 30.4174 32.625 30.4174 32.5398V32.2164C30.6336 32.1762 30.8269 32.0568 30.9596 31.8815C31.0923 31.7061 31.1548 31.4876 31.1348 31.2686C31.1148 31.0497 31.0137 30.8461 30.8514 30.6977C30.6891 30.5494 30.4773 30.467 30.2574 30.4667H29.934C29.9011 30.4689 29.8682 30.4644 29.8372 30.4534C29.8061 30.4424 29.7777 30.4252 29.7537 30.4027C29.7296 30.3803 29.7104 30.3531 29.6973 30.3229C29.6842 30.2927 29.6774 30.2602 29.6774 30.2272C29.6774 30.1943 29.6842 30.1618 29.6973 30.1316C29.7104 30.1014 29.7296 30.0742 29.7537 30.0518C29.7777 30.0293 29.8061 30.0121 29.8372 30.0011C29.8682 29.9901 29.9011 29.9856 29.934 29.9878H30.8185C30.9037 29.9878 30.9854 29.954 31.0456 29.8938C31.1058 29.8335 31.1397 29.7519 31.1397 29.6667C31.1397 29.5815 31.1058 29.4998 31.0456 29.4396C30.9854 29.3794 30.9037 29.3455 30.8185 29.3455H30.4174V29.037C30.4174 28.9518 30.3836 28.8701 30.3233 28.8099C30.2631 28.7497 30.1814 28.7158 30.0962 28.7158C30.0111 28.7158 29.9294 28.7497 29.8692 28.8099C29.8089 28.8701 29.7751 28.9518 29.7751 29.037V29.3604C29.5589 29.4006 29.3655 29.52 29.2328 29.6953C29.1001 29.8706 29.0377 30.0892 29.0577 30.3082C29.0777 30.5271 29.1788 30.7307 29.3411 30.8791C29.5034 31.0274 29.7152 31.1098 29.9351 31.1101V31.109Z" fill="#1458EA"/>
<path d="M30.0971 33.868C30.7062 33.868 31.3017 33.6874 31.8082 33.3489C32.3147 33.0105 32.7095 32.5295 32.9426 31.9667C33.1757 31.4039 33.2367 30.7846 33.1179 30.1871C32.9991 29.5897 32.7057 29.0409 32.275 28.6101C31.8442 28.1794 31.2954 27.886 30.698 27.7672C30.1005 27.6483 29.4812 27.7093 28.9184 27.9425C28.3556 28.1756 27.8746 28.5703 27.5362 29.0768C27.1977 29.5834 27.0171 30.1788 27.0171 30.788C27.0186 31.6044 27.3436 32.3869 27.9209 32.9642C28.4981 33.5415 29.2807 33.8665 30.0971 33.868ZM30.0971 28.3514C30.579 28.3514 31.0501 28.4943 31.4508 28.7621C31.8515 29.0298 32.1638 29.4103 32.3482 29.8556C32.5326 30.3008 32.5808 30.7907 32.4868 31.2634C32.3928 31.736 32.1608 32.1702 31.82 32.5109C31.4792 32.8517 31.0451 33.0837 30.5724 33.1778C30.0998 33.2718 29.6099 33.2235 29.1647 33.0391C28.7194 32.8547 28.3389 32.5424 28.0711 32.1417C27.8034 31.741 27.6605 31.2699 27.6605 30.788C27.6614 30.1421 27.9184 29.5228 28.3752 29.0661C28.8319 28.6093 29.4511 28.3523 30.0971 28.3514Z" fill="#1458EA"/>
<path d="M39.4161 29.9878H40.3007C40.3859 29.9878 40.4676 29.954 40.5278 29.8938C40.588 29.8335 40.6218 29.7519 40.6218 29.6667C40.6218 29.5815 40.588 29.4998 40.5278 29.4396C40.4676 29.3794 40.3859 29.3455 40.3007 29.3455H39.8996V29.037C39.8996 28.9518 39.8657 28.8701 39.8055 28.8099C39.7453 28.7497 39.6636 28.7158 39.5784 28.7158C39.4932 28.7158 39.4115 28.7497 39.3513 28.8099C39.2911 28.8701 39.2573 28.9518 39.2573 29.037V29.3604C39.0411 29.4006 38.8477 29.52 38.715 29.6953C38.5823 29.8706 38.5198 30.0892 38.5399 30.3082C38.5599 30.5271 38.661 30.7307 38.8233 30.8791C38.9856 31.0274 39.1974 31.1098 39.4173 31.1101H39.7407C39.7735 31.1078 39.8065 31.1123 39.8375 31.1233C39.8685 31.1343 39.8969 31.1516 39.921 31.1741C39.9451 31.1965 39.9642 31.2237 39.9774 31.2539C39.9905 31.2841 39.9972 31.3166 39.9972 31.3495C39.9972 31.3825 39.9905 31.415 39.9774 31.4452C39.9642 31.4754 39.9451 31.5025 39.921 31.525C39.8969 31.5474 39.8685 31.5647 39.8375 31.5757C39.8065 31.5867 39.7735 31.5912 39.7407 31.589H38.8538C38.7687 31.589 38.687 31.6228 38.6267 31.683C38.5665 31.7432 38.5327 31.8249 38.5327 31.9101C38.5327 31.9953 38.5665 32.077 38.6267 32.1372C38.687 32.1974 38.7687 32.2313 38.8538 32.2313H39.255V32.5398C39.255 32.6251 39.2889 32.707 39.3492 32.7673C39.4096 32.8276 39.4914 32.8615 39.5767 32.8615C39.662 32.8615 39.7439 32.8276 39.8042 32.7673C39.8645 32.707 39.8984 32.6251 39.8984 32.5398V32.2164C40.1146 32.1762 40.308 32.0568 40.4407 31.8815C40.5734 31.7061 40.6358 31.4876 40.6158 31.2686C40.5958 31.0497 40.4947 30.8461 40.3324 30.6977C40.1701 30.5494 39.9583 30.467 39.7384 30.4667H39.415C39.3821 30.4689 39.3492 30.4644 39.3182 30.4534C39.2872 30.4424 39.2588 30.4252 39.2347 30.4027C39.2106 30.3803 39.1914 30.3531 39.1783 30.3229C39.1652 30.2927 39.1584 30.2602 39.1584 30.2272C39.1584 30.1943 39.1652 30.1618 39.1783 30.1316C39.1914 30.1014 39.2106 30.0742 39.2347 30.0518C39.2588 30.0293 39.2872 30.0121 39.3182 30.0011C39.3492 29.9901 39.3821 29.9856 39.415 29.9878H39.4161Z" fill="#1458EA"/>
<path d="M39.5785 27.708C38.9694 27.708 38.3739 27.8887 37.8674 28.2271C37.3609 28.5655 36.9661 29.0465 36.733 29.6093C36.4999 30.1721 36.4389 30.7914 36.5577 31.3889C36.6766 31.9863 36.9699 32.5351 37.4006 32.9659C37.8314 33.3966 38.3802 33.69 38.9776 33.8088C39.5751 33.9277 40.1944 33.8667 40.7572 33.6335C41.32 33.4004 41.801 33.0057 42.1394 32.4992C42.4779 31.9927 42.6585 31.3972 42.6585 30.788C42.657 29.9716 42.332 29.1891 41.7547 28.6118C41.1775 28.0345 40.3949 27.7095 39.5785 27.708ZM39.5785 33.2246C39.0966 33.2246 38.6255 33.0817 38.2249 32.8139C37.8242 32.5462 37.5118 32.1657 37.3274 31.7204C37.143 31.2752 37.0948 30.7853 37.1888 30.3127C37.2828 29.84 37.5148 29.4058 37.8556 29.0651C38.1964 28.7243 38.6305 28.4923 39.1032 28.3982C39.5758 28.3042 40.0657 28.3525 40.511 28.5369C40.9562 28.7213 41.3367 29.0336 41.6045 29.4343C41.8722 29.835 42.0151 30.3061 42.0151 30.788C42.0142 31.4339 41.7572 32.0532 41.3004 32.5099C40.8437 32.9667 40.2245 33.2237 39.5785 33.2246Z" fill="#1458EA"/>
<path d="M27.3374 22.5936C27.4333 23.3079 27.6715 23.9957 28.0378 24.6164C28.4041 25.237 28.891 25.778 29.4699 26.2073C30.1338 26.6215 30.9036 26.8339 31.6859 26.8188C32.4097 26.8068 33.1271 26.6806 33.8116 26.445H33.8185H33.8322H33.8391L33.8699 26.4302H33.8768L33.8894 26.4222L33.9099 26.4062L33.9214 26.3959L33.9305 26.3879V26.3822L33.9534 26.357V26.3502L33.9625 26.3365L33.9693 26.3262V26.3182L33.9796 26.2988L33.9888 26.277L33.9956 26.2588V26.2405C33.9956 26.2325 33.9956 26.2245 33.9956 26.2165C33.9956 26.2085 33.9956 26.2039 33.9956 26.197C33.9956 26.1902 33.9956 26.1845 33.9956 26.1776C33.9956 26.1708 33.9956 26.1616 33.9956 26.1547C33.9956 26.1479 33.9956 26.141 33.9956 26.1353C33.9956 26.1296 33.9956 26.1216 33.9956 26.1148C33.9956 26.1079 33.9956 26.1067 33.9956 26.1033C33.918 25.354 33.671 24.6322 33.2732 23.9924C32.8754 23.3527 32.3373 22.8118 31.6996 22.4107C31.0449 22.1098 30.3366 21.9432 29.6164 21.9206C28.8962 21.898 28.1788 22.02 27.5065 22.2793L27.4882 22.2896L27.4585 22.3056L27.4322 22.3239L27.4082 22.3433L27.3853 22.3673L27.3671 22.3902C27.3602 22.3982 27.3556 22.4073 27.3499 22.4165C27.3445 22.425 27.3396 22.4337 27.3351 22.4427C27.3351 22.4519 27.3271 22.4622 27.3236 22.4713C27.3202 22.4805 27.3168 22.4908 27.3145 22.501C27.3122 22.5113 27.3145 22.5216 27.3145 22.5319C27.3145 22.5422 27.3145 22.5513 27.3145 22.5616C27.3137 22.5734 27.3137 22.5852 27.3145 22.597C27.3222 22.5968 27.3299 22.5957 27.3374 22.5936ZM31.4208 22.9513C31.8757 23.2294 32.2698 23.5964 32.5795 24.0304C32.8892 24.4644 33.1081 24.9564 33.2231 25.477L30.4654 23.8439C30.429 23.8224 30.3888 23.8083 30.3471 23.8024C30.3053 23.7965 30.2628 23.7988 30.2219 23.8093C30.1811 23.8198 30.1427 23.8383 30.1089 23.8636C30.0752 23.889 30.0468 23.9207 30.0253 23.957C30.0039 23.9934 29.9898 24.0335 29.9839 24.0753C29.9779 24.1171 29.9803 24.1596 29.9908 24.2005C30.0013 24.2413 30.0198 24.2797 30.0451 24.3134C30.0704 24.3472 30.1022 24.3756 30.1385 24.397L32.8962 26.0302C32.3851 26.1794 31.8491 26.2241 31.3204 26.1617C30.7916 26.0992 30.2808 25.9309 29.8185 25.6667C28.8726 24.965 28.2301 23.9288 28.0219 22.7696C29.1369 22.3938 30.3534 22.4588 31.4219 22.9513H31.4208Z" fill="#1458EA"/>
<path d="M35.6472 26.0921C35.6472 26.0989 35.6472 26.1058 35.6472 26.1126C35.6472 26.1195 35.6472 26.1264 35.6472 26.1321C35.6466 26.1397 35.6466 26.1473 35.6472 26.1549C35.6472 26.1618 35.6472 26.1675 35.6472 26.1743C35.6472 26.1812 35.6472 26.1869 35.6472 26.1938V26.2166C35.6468 26.2227 35.6468 26.2288 35.6472 26.2349C35.6492 26.2411 35.6515 26.2472 35.6541 26.2532C35.6567 26.2606 35.6598 26.2679 35.6632 26.2749L35.6735 26.2944V26.3023L35.6804 26.3126L35.6895 26.3264V26.3332C35.6966 26.342 35.7043 26.3504 35.7123 26.3584L35.7215 26.3664L35.7329 26.3766L35.7546 26.3926L35.7672 26.4006H35.7729H35.7798L35.8106 26.4155H35.8175H35.8312H35.8381C36.5226 26.6511 37.2399 26.7772 37.9638 26.7892C38.746 26.8041 39.5158 26.5917 40.1798 26.1778C40.7586 25.7484 41.2455 25.2075 41.6118 24.5868C41.9781 23.9661 42.2163 23.2783 42.3123 22.5641C42.3123 22.5572 42.3123 22.5504 42.3123 22.5435C42.3131 22.5317 42.3131 22.5199 42.3123 22.5081C42.3123 22.4978 42.3123 22.4886 42.3123 22.4784C42.3123 22.4681 42.3124 22.4566 42.3066 22.4464C42.3009 22.4361 42.3009 22.4269 42.2975 22.4166C42.2942 22.4065 42.2904 22.3966 42.2861 22.3869L42.2724 22.3606C42.2667 22.3512 42.2606 22.342 42.254 22.3332L42.2369 22.3126L42.2129 22.2875L42.1912 22.2703C42.1821 22.2629 42.1726 22.256 42.1626 22.2498L42.1363 22.2361C42.1283 22.2361 42.1226 22.2281 42.1146 22.2246C41.4424 21.9653 40.7249 21.8434 40.0047 21.8659C39.2846 21.8885 38.5762 22.0552 37.9215 22.3561C37.2838 22.7571 36.7456 23.2979 36.3478 23.9377C35.95 24.5774 35.703 25.2993 35.6255 26.0486C35.6255 26.0486 35.6472 26.0886 35.6472 26.0921ZM38.2506 22.9538C39.3204 22.4616 40.5377 22.3962 41.6541 22.7709C41.4457 23.9298 40.8032 24.9655 39.8575 25.6669C39.3952 25.9311 38.8844 26.0994 38.3556 26.1618C37.8268 26.2243 37.2909 26.1796 36.7798 26.0304L39.5375 24.3972C39.6108 24.3539 39.664 24.2832 39.6852 24.2006C39.7064 24.1181 39.694 24.0306 39.6506 23.9572C39.6073 23.8839 39.5366 23.8307 39.4541 23.8095C39.3716 23.7883 39.284 23.8007 39.2106 23.8441L36.4529 25.4772C36.5676 24.9575 36.7858 24.4663 37.0945 24.0327C37.4031 23.5992 37.7959 23.2322 38.2495 22.9538H38.2506Z" fill="#1458EA"/>
<path d="M34.5997 24.1145L34.6135 24.1236L34.6283 24.1362L34.6397 24.1442L34.6683 24.1602L34.6843 24.1693H34.6923L34.73 24.1819H34.7449C34.7631 24.1836 34.7815 24.1836 34.7997 24.1819H34.8077C34.8281 24.1816 34.8484 24.1793 34.8683 24.1751H34.882C34.8956 24.1718 34.909 24.1676 34.922 24.1625H34.93L34.9449 24.1545L34.9746 24.1385L34.9872 24.1305L35.0009 24.1191L35.0146 24.1099C35.6228 23.6653 36.1219 23.088 36.4739 22.4219C36.826 21.7558 37.0218 21.0184 37.0466 20.2653C36.9767 19.5481 36.7639 18.8521 36.4205 18.2185C36.0772 17.5848 35.6105 17.0264 35.0477 16.5762L35.0317 16.5659L35.0009 16.5465L34.9735 16.5339L34.9437 16.5225L34.9129 16.5156H34.8832H34.8214H34.7917L34.7597 16.5225L34.7312 16.5328L34.7026 16.5453L34.674 16.5625L34.6557 16.5739C34.0877 17.016 33.614 17.5674 33.2625 18.1955C32.9109 18.8236 32.6887 19.5157 32.6089 20.2311C32.623 20.9873 32.8097 21.7302 33.1547 22.4033C33.4997 23.0763 33.994 23.6616 34.5997 24.1145ZM33.2603 20.2745C33.3905 19.1035 33.9628 18.0264 34.8603 17.2631C35.7465 18.0366 36.3034 19.1197 36.4169 20.2905C36.4062 20.8238 36.2879 21.3494 36.0691 21.8358C35.8504 22.3223 35.5356 22.7595 35.1437 23.1214L35.1643 19.9145C35.1646 19.8723 35.1566 19.8305 35.1407 19.7914C35.1249 19.7523 35.1015 19.7168 35.0718 19.6867C35.0422 19.6567 35.007 19.6328 34.9682 19.6164C34.9293 19.6 34.8876 19.5914 34.8455 19.5911C34.7607 19.5911 34.6793 19.6246 34.6192 19.6843C34.559 19.744 34.5249 19.8251 34.5243 19.9099L34.5037 23.1168C34.1159 22.7511 33.8058 22.3108 33.5922 21.8224C33.3785 21.334 33.2656 20.8075 33.2603 20.2745Z" fill="#1458EA"/>
</svg>
