<svg width="64" height="64" viewBox="0 0 64 64" fill="none" xmlns="http://www.w3.org/2000/svg">
<path d="M32 64C49.6731 64 64 49.6731 64 32C64 14.3269 49.6731 0 32 0C14.3269 0 0 14.3269 0 32C0 49.6731 14.3269 64 32 64Z" fill="#E4EDFF"/>
<path d="M19.1847 45.0573C19.2048 45.1724 19.2697 45.2749 19.3653 45.3422C19.4608 45.4095 19.5792 45.4361 19.6944 45.4162L23.9378 44.6733C24.0529 44.6532 24.1554 44.5882 24.2227 44.4927C24.29 44.3971 24.3166 44.2787 24.2967 44.1636L24.2052 43.6436L25.2338 42.8104C25.6379 42.4766 26.1558 42.3127 26.6784 42.3533L33.5984 42.8596H33.6692C35.1793 42.8576 36.65 42.3776 37.8704 41.4882C37.8873 41.476 37.9033 41.4626 37.9184 41.4482L46.1618 33.3773C46.2421 33.2986 46.2893 33.1922 46.2938 33.0798C46.2982 32.9674 46.2596 32.8576 46.1858 32.7727C45.7407 32.2597 45.1152 31.9379 44.439 31.874C43.7629 31.8102 43.0881 32.0092 42.5549 32.4299L38.7081 35.3064C38.3326 34.8282 37.8345 34.4608 37.2668 34.243C36.6991 34.0253 36.0831 33.9655 35.4841 34.0699L31.6144 34.7464C30.986 34.8556 30.3411 34.822 29.7275 34.6482L29.2944 34.5247C28.1889 34.2071 27.0219 34.169 25.8981 34.4137C24.7742 34.6585 23.7288 35.1785 22.8555 35.927L22.6692 34.8607C22.6491 34.7456 22.5842 34.6431 22.4886 34.5759C22.393 34.5086 22.2747 34.482 22.1595 34.5019L17.9161 35.2447C17.801 35.2648 17.6985 35.3298 17.6312 35.4254C17.5639 35.5209 17.5373 35.6393 17.5572 35.7544L19.1847 45.0573ZM29.0521 35.3636L29.4852 35.487C30.2289 35.6963 31.0101 35.7354 31.7709 35.6013L35.6407 34.9247C36.2132 34.8255 36.8024 34.9301 37.3059 35.2204C37.8093 35.5106 38.1951 35.9681 38.3961 36.5133L32.5081 37.5419C32.3997 37.5612 32.3025 37.6204 32.2355 37.7077C32.1685 37.7951 32.1366 37.9043 32.146 38.014C32.1555 38.1237 32.2056 38.2259 32.2865 38.3005C32.3675 38.3752 32.4734 38.4168 32.5835 38.4173C32.6092 38.4172 32.6348 38.4149 32.6601 38.4104L39.0212 37.2973C39.0783 37.2874 39.133 37.2662 39.1819 37.2352C39.2309 37.2041 39.2732 37.1637 39.3066 37.1163C39.3399 37.0688 39.3635 37.0153 39.3762 36.9587C39.3888 36.9021 39.3901 36.8436 39.3801 36.7864C39.3361 36.5352 39.2636 36.2898 39.1641 36.055L43.0932 33.1167L43.1024 33.1099C43.4019 32.873 43.7703 32.7399 44.1521 32.7306C44.5338 32.7213 44.9083 32.8364 45.2189 33.0584L37.3332 40.7716C36.2679 41.5378 34.9884 41.9492 33.6761 41.9476H33.6544L26.7492 41.4527C25.9996 41.3982 25.258 41.6366 24.6807 42.1179L24.0407 42.6402L23.0441 36.9464C23.8102 36.1634 24.7739 35.6023 25.833 35.3227C26.8922 35.043 28.0073 35.0551 29.0601 35.3579L29.0521 35.3636ZM21.8749 35.4367L23.3527 43.8802L19.9778 44.471L18.5012 36.0276L21.8749 35.4367Z" fill="#1458EA"/>
<path d="M32.2722 31.7091C32.3137 31.76 32.3659 31.8011 32.4252 31.8294C32.4845 31.8576 32.5494 31.8724 32.6151 31.8725C32.6808 31.8722 32.7457 31.8573 32.805 31.8288C32.8643 31.8004 32.9166 31.7591 32.9579 31.7079L39.9968 23.1114C40.0547 23.0405 40.0892 22.9534 40.0955 22.8621C40.1019 22.7709 40.0797 22.6798 40.0322 22.6016L37.7008 18.7902C37.6603 18.7247 37.6033 18.671 37.5355 18.6345C37.4677 18.598 37.3915 18.58 37.3145 18.5822H27.8631C27.7878 18.5817 27.7137 18.6006 27.6479 18.6371C27.582 18.6735 27.5266 18.7262 27.4871 18.7902L25.1556 22.6028C25.1078 22.6811 25.0855 22.7723 25.0919 22.8639C25.0982 22.9554 25.1329 23.0427 25.1911 23.1137L32.2722 31.7091ZM35.2436 23.2428L32.6151 30.1879L29.9648 23.2428H35.2436ZM30.1808 22.3605L32.5968 19.6519L35.0402 22.3605H30.1808ZM36.1865 23.2428H38.727L34.0002 29.0097L36.1865 23.2428ZM36.5202 22.3605L37.4173 19.9902L38.8665 22.3605H36.5202ZM35.7693 21.8828L33.5865 19.4634H36.6848L35.7693 21.8828ZM29.439 21.8977L28.5099 19.4634H31.6105L29.439 21.8977ZM28.6836 22.3548H26.3202L27.7728 19.9788L28.6836 22.3548ZM29.0196 23.2371L31.2219 29.0085L26.4676 23.2371H29.0196Z" fill="#1458EA"/>
</svg>
