<svg width="64" height="64" viewBox="0 0 64 64" fill="none" xmlns="http://www.w3.org/2000/svg">
<path d="M32 64C49.6731 64 64 49.6731 64 32C64 14.3269 49.6731 0 32 0C14.3269 0 0 14.3269 0 32C0 49.6731 14.3269 64 32 64Z" fill="#E4EDFF"/>
<path d="M29.209 40.9483V37.0329C29.2091 36.9022 29.1634 36.7757 29.0798 36.6752L23.785 30.2752C23.5439 30.0452 23.243 29.8876 22.9167 29.8203C22.5903 29.753 22.2517 29.7788 21.9392 29.8946V26.9689C21.9278 26.5317 21.7461 26.1162 21.4328 25.811C21.1196 25.5058 20.6995 25.335 20.2621 25.335C19.8247 25.335 19.4046 25.5058 19.0914 25.811C18.7781 26.1162 18.5964 26.5317 18.585 26.9689V34.2375C18.5852 34.3515 18.6203 34.4628 18.6855 34.5563L22.4992 40.0077V40.9483C22.0543 40.9483 21.6276 41.1251 21.3129 41.4397C20.9983 41.7543 20.8215 42.1811 20.8215 42.626V44.8626C20.8215 45.0108 20.8804 45.153 20.9852 45.2578C21.09 45.3626 21.2322 45.4215 21.3804 45.4215H30.3267C30.4749 45.4215 30.617 45.3626 30.7218 45.2578C30.8267 45.153 30.8855 45.0108 30.8855 44.8626V42.6249C30.8852 42.1803 30.7085 41.7541 30.3941 41.4397C30.0798 41.1254 29.6535 40.9486 29.209 40.9483ZM23.5118 39.5106L19.6981 34.058V26.9723C19.6981 26.8241 19.757 26.682 19.8618 26.5771C19.9666 26.4723 20.1087 26.4135 20.257 26.4135C20.4052 26.4135 20.5473 26.4723 20.6521 26.5771C20.7569 26.682 20.8158 26.8241 20.8158 26.9723V31.4455V31.4843C20.8152 31.9332 20.9899 32.3646 21.3027 32.6866L23.753 35.6912C23.8489 35.7977 23.982 35.8632 24.1249 35.8743C24.2678 35.8854 24.4095 35.8412 24.5207 35.7509C24.6319 35.6605 24.7041 35.5308 24.7225 35.3887C24.7408 35.2466 24.7039 35.1028 24.6192 34.9872L22.153 32.0009L22.1141 31.9563C22.0566 31.8992 22.011 31.8312 21.9799 31.7564C21.9488 31.6816 21.9328 31.6014 21.9328 31.5203C21.9328 31.4393 21.9488 31.359 21.9799 31.2842C22.011 31.2094 22.0566 31.1415 22.1141 31.0843C22.2291 30.9843 22.3745 30.926 22.5268 30.919C22.679 30.9119 22.8292 30.9565 22.953 31.0455L28.0855 37.2523V40.9483H23.609V39.8283C23.6095 39.715 23.5757 39.6042 23.5118 39.5106ZM29.7632 44.3026H21.9347V42.6249C21.9347 42.5515 21.9491 42.4788 21.9772 42.411C22.0053 42.3432 22.0465 42.2816 22.0984 42.2297C22.1503 42.1778 22.2119 42.1367 22.2797 42.1086C22.3475 42.0805 22.4201 42.066 22.4935 42.066H29.209C29.2824 42.066 29.355 42.0805 29.4228 42.1086C29.4906 42.1367 29.5522 42.1778 29.6041 42.2297C29.656 42.2816 29.6972 42.3432 29.7253 42.411C29.7534 42.4788 29.7678 42.5515 29.7678 42.6249L29.7632 44.3026Z" fill="#1458EA"/>
<path d="M43.7458 25.291C43.3008 25.291 42.8741 25.4678 42.5594 25.7824C42.2448 26.097 42.068 26.5238 42.068 26.9687V29.8876C41.7475 29.7676 41.3989 29.7439 41.0651 29.8194C40.7313 29.895 40.4268 30.0664 40.1892 30.3127L34.932 36.6922C34.8517 36.7887 34.8062 36.9095 34.8029 37.035V40.9482C34.582 40.9471 34.3631 40.9897 34.1587 41.0735C33.9543 41.1572 33.7684 41.2805 33.6118 41.4363C33.4552 41.5921 33.3309 41.7773 33.246 41.9812C33.1611 42.1851 33.1173 42.4038 33.1172 42.6247V44.8613C33.1172 45.0095 33.1761 45.1517 33.2809 45.2565C33.3857 45.3613 33.5278 45.4202 33.676 45.4202H42.6223C42.7706 45.4202 42.9127 45.3613 43.0175 45.2565C43.1223 45.1517 43.1812 45.0095 43.1812 44.8613V42.6247C43.1809 42.1802 43.0042 41.7539 42.6898 41.4395C42.3754 41.1252 41.9492 40.9485 41.5046 40.9482V40.0087L45.3183 34.563C45.3847 34.4679 45.4199 34.3545 45.4189 34.2384V26.9699C45.4192 26.5255 45.2432 26.0992 44.9295 25.7844C44.6159 25.4697 44.1901 25.2922 43.7458 25.291ZM42.0635 42.6247V44.3024H34.2349V42.6247C34.2349 42.5513 34.2494 42.4787 34.2774 42.4109C34.3055 42.3431 34.3467 42.2815 34.3986 42.2296C34.4505 42.1777 34.5121 42.1365 34.5799 42.1084C34.6477 42.0803 34.7204 42.0659 34.7938 42.0659H41.5035C41.577 42.0657 41.6498 42.0801 41.7177 42.1081C41.7856 42.1361 41.8474 42.1772 41.8994 42.2292C41.9514 42.2811 41.9927 42.3427 42.0208 42.4106C42.049 42.4785 42.0635 42.5512 42.0635 42.6247ZM44.3 34.0533L40.4863 39.499C40.4199 39.5941 40.3848 39.7076 40.3858 39.8236V40.9482H35.9126V37.2453L41.012 31.0613C41.1296 30.9493 41.2857 30.8868 41.448 30.8868C41.6104 30.8868 41.7665 30.9493 41.884 31.0613C41.9415 31.1184 41.9871 31.1864 42.0182 31.2612C42.0493 31.336 42.0654 31.4163 42.0654 31.4973C42.0654 31.5783 42.0493 31.6586 42.0182 31.7334C41.9871 31.8082 41.9415 31.8762 41.884 31.9333L41.8452 31.9779L39.38 35.0053C39.2954 35.121 39.2585 35.2647 39.2768 35.4068C39.2952 35.549 39.3674 35.6786 39.4786 35.769C39.5898 35.8594 39.7315 35.9036 39.8744 35.8925C40.0173 35.8814 40.1504 35.8158 40.2463 35.7093L42.6955 32.707C43.0096 32.3836 43.1844 31.9499 43.1823 31.499V31.4624V26.9687C43.1823 26.8205 43.2412 26.6784 43.346 26.5736C43.4508 26.4688 43.593 26.4099 43.7412 26.4099C43.8894 26.4099 44.0316 26.4688 44.1364 26.5736C44.2412 26.6784 44.3 26.8205 44.3 26.9687V34.0533Z" fill="#1458EA"/>
<path d="M38.1494 24.7319C38.1494 23.5154 37.7886 22.3262 37.1128 21.3147C36.4369 20.3032 35.4763 19.5148 34.3523 19.0493C33.2284 18.5837 31.9917 18.4619 30.7985 18.6992C29.6054 18.9366 28.5094 19.5224 27.6492 20.3826C26.789 21.2428 26.2032 22.3388 25.9658 23.5319C25.7285 24.7251 25.8503 25.9618 26.3159 27.0857C26.7814 28.2097 27.5698 29.1703 28.5813 29.8462C29.5928 30.522 30.782 30.8828 31.9985 30.8828C33.6298 30.8828 35.1943 30.2347 36.3478 29.0812C37.5013 27.9277 38.1494 26.3632 38.1494 24.7319ZM31.9985 29.7605C31.004 29.7605 30.0317 29.4656 29.2048 28.913C28.3778 28.3605 27.7333 27.5751 27.3527 26.6563C26.9721 25.7374 26.8725 24.7263 27.0666 23.7509C27.2606 22.7754 27.7395 21.8794 28.4428 21.1762C29.146 20.4729 30.042 19.994 31.0175 19.8C31.9929 19.6059 33.004 19.7055 33.9229 20.0861C34.8417 20.4667 35.6271 21.1112 36.1796 21.9382C36.7322 22.7651 37.0271 23.7374 37.0271 24.7319C37.0275 25.3925 36.8978 26.0466 36.6454 26.6571C36.393 27.2675 36.0227 27.8222 35.5559 28.2895C35.089 28.7568 34.5346 29.1275 33.9245 29.3805C33.3143 29.6335 32.6602 29.7638 31.9997 29.7639L31.9985 29.7605Z" fill="#1458EA"/>
<path d="M31.4409 23.054H32.5586C32.632 23.054 32.7047 23.0684 32.7725 23.0965C32.8403 23.1246 32.9019 23.1657 32.9538 23.2176C33.0057 23.2695 33.0468 23.3311 33.0749 23.3989C33.103 23.4667 33.1175 23.5394 33.1175 23.6128C33.1175 23.761 33.1764 23.9032 33.2812 24.008C33.386 24.1128 33.5281 24.1717 33.6763 24.1717C33.8245 24.1717 33.9667 24.1128 34.0715 24.008C34.1763 23.9032 34.2352 23.761 34.2352 23.6128C34.2352 23.1679 34.0584 22.7411 33.7438 22.4265C33.4292 22.1119 33.0024 21.9351 32.5575 21.9351V21.3762C32.5575 21.228 32.4986 21.0859 32.3938 20.9811C32.289 20.8763 32.1468 20.8174 31.9986 20.8174C31.8504 20.8174 31.7083 20.8763 31.6034 20.9811C31.4986 21.0859 31.4398 21.228 31.4398 21.3762V21.9351C31.2158 21.9293 30.993 21.9683 30.7844 22.05C30.5758 22.1316 30.3857 22.2542 30.2252 22.4105C30.0648 22.5669 29.9373 22.7537 29.8502 22.9601C29.7631 23.1665 29.7183 23.3882 29.7183 23.6122C29.7183 23.8362 29.7631 24.058 29.8502 24.2644C29.9373 24.4708 30.0648 24.6576 30.2252 24.8139C30.3857 24.9703 30.5758 25.0929 30.7844 25.1745C30.993 25.2562 31.2158 25.2952 31.4398 25.2894H32.5575C32.7057 25.2894 32.8478 25.3483 32.9526 25.4531C33.0575 25.5579 33.1163 25.7 33.1163 25.8482C33.1163 25.9965 33.0575 26.1386 32.9526 26.2434C32.8478 26.3482 32.7057 26.4071 32.5575 26.4071H31.4398C31.3664 26.4071 31.2937 26.3926 31.2259 26.3646C31.1581 26.3365 31.0965 26.2953 31.0446 26.2434C30.9927 26.1915 30.9515 26.1299 30.9234 26.0621C30.8954 25.9943 30.8809 25.9216 30.8809 25.8482C30.8811 25.7748 30.8667 25.7021 30.8388 25.6343C30.8109 25.5664 30.7698 25.5047 30.718 25.4527C30.6662 25.4007 30.6047 25.3594 30.537 25.3312C30.4692 25.303 30.3966 25.2884 30.3232 25.2882C30.2498 25.2881 30.1771 25.3024 30.1092 25.3303C30.0414 25.3583 29.9797 25.3993 29.9277 25.4511C29.8757 25.5029 29.8344 25.5644 29.8062 25.6322C29.7779 25.6999 29.7633 25.7726 29.7632 25.846C29.7632 26.2909 29.9399 26.7176 30.2546 27.0323C30.5692 27.3469 30.9959 27.5237 31.4409 27.5237V28.0825C31.4409 28.2307 31.4998 28.3729 31.6046 28.4777C31.7094 28.5825 31.8515 28.6414 31.9998 28.6414C32.148 28.6414 32.2901 28.5825 32.3949 28.4777C32.4997 28.3729 32.5586 28.2307 32.5586 28.0825V27.5271C32.9958 27.5157 33.4113 27.334 33.7165 27.0207C34.0217 26.7074 34.1925 26.2873 34.1925 25.85C34.1925 25.4126 34.0217 24.9925 33.7165 24.6792C33.4113 24.3659 32.9958 24.1842 32.5586 24.1728H31.4409C31.2927 24.1728 31.1505 24.1139 31.0457 24.0091C30.9409 23.9043 30.882 23.7622 30.882 23.614C30.882 23.4657 30.9409 23.3236 31.0457 23.2188C31.1505 23.114 31.2927 23.0551 31.4409 23.0551V23.054Z" fill="#1458EA"/>
</svg>
